<svg width="640" height="640" viewBox="0 0 640 640" fill="none" xmlns="http://www.w3.org/2000/svg">
<g clip-path="url(#clip0_1123_118)">
<path d="M359.744 62.8673C472.107 96.7455 579.303 171.493 607.846 311.984C632.306 432.379 514.824 616.467 449.985 584.098C385.146 551.729 356.749 448.991 300.433 396.729C224.49 325.99 82.6224 350.206 37.7819 261.18C5.22331 196.725 62.3245 147.11 104.414 113.422C172.933 58.7696 277.453 38.0606 359.744 62.8673Z" fill="#DDDDDD"/>
<path d="M492.245 488.156C492.245 488.156 492.245 488.156 492.245 488.103C492.352 487.783 492.459 487.517 492.512 487.197C492.512 487.197 492.512 487.144 492.512 487.091C496.189 469.028 498.053 450.432 498.053 431.889C498.053 372.584 479.511 316.104 444.397 268.575C444.29 268.468 444.184 268.362 444.13 268.255C434.753 188.33 390.9 116.237 322.804 70.9991C320.832 69.667 318.221 69.667 316.25 70.9991C248.153 116.13 204.301 188.276 194.923 268.148C194.816 268.255 194.71 268.362 194.657 268.468C159.543 316.05 141 372.531 141 431.836C141 450.432 142.865 469.028 146.541 487.037C146.541 487.037 146.541 487.091 146.541 487.144C146.595 487.464 146.701 487.73 146.808 487.997V488.103C146.968 488.423 147.128 488.796 147.287 489.062C147.287 489.116 147.394 489.222 147.447 489.275C147.607 489.489 147.767 489.702 147.927 489.915C148.033 490.021 148.14 490.128 148.247 490.181C148.406 490.341 148.566 490.501 148.779 490.607C148.886 490.714 148.993 490.767 149.152 490.874C149.366 490.98 149.579 491.14 149.792 491.247C149.845 491.247 149.952 491.353 150.005 491.353C150.005 491.353 150.111 491.353 150.165 491.353C150.431 491.46 150.698 491.513 150.964 491.62C151.071 491.62 151.177 491.673 151.284 491.726C151.657 491.78 152.03 491.833 152.403 491.833C152.776 491.833 153.095 491.833 153.468 491.726H153.575C153.628 491.726 153.681 491.726 153.735 491.726C154.001 491.673 154.268 491.567 154.534 491.46C154.587 491.46 154.694 491.407 154.747 491.353C155.067 491.194 155.333 491.034 155.653 490.874C155.706 490.874 155.813 490.767 155.866 490.714C156.079 490.554 156.292 490.394 156.452 490.181C156.506 490.128 156.612 490.021 156.665 489.968C156.825 489.755 157.038 489.542 157.198 489.329C157.198 489.275 157.305 489.222 157.305 489.169C157.465 488.902 157.624 488.636 157.784 488.316C160.342 482.455 163.166 476.541 166.203 470.733C178.831 446.702 194.87 424.962 213.945 406.046C216.556 412.281 219.327 418.408 222.417 424.483C223.43 426.507 225.455 427.733 227.746 427.733H242.186V444.73C242.186 448.034 244.85 450.698 248.153 450.698H390.953C394.257 450.698 396.921 448.034 396.921 444.73V427.733H411.361C413.599 427.733 415.677 426.454 416.689 424.483C419.78 418.408 422.551 412.227 425.161 406.046C444.237 424.962 460.275 446.649 472.904 470.733C475.941 476.541 478.765 482.402 481.322 488.316C481.429 488.636 481.642 488.902 481.802 489.169C481.802 489.222 481.909 489.275 481.909 489.329C482.068 489.542 482.228 489.755 482.441 489.968C482.495 490.021 482.601 490.128 482.654 490.181C482.868 490.341 483.027 490.554 483.241 490.714C483.294 490.714 483.4 490.821 483.454 490.874C483.72 491.087 484.04 491.247 484.36 491.353C484.413 491.353 484.519 491.407 484.573 491.46C484.839 491.567 485.105 491.673 485.372 491.726C485.425 491.726 485.478 491.726 485.532 491.726H485.638C486.011 491.78 486.331 491.833 486.704 491.833C487.077 491.833 487.45 491.833 487.823 491.726C487.93 491.726 488.036 491.673 488.143 491.62C488.409 491.567 488.676 491.46 488.942 491.353C488.942 491.353 489.048 491.353 489.102 491.353C489.155 491.353 489.262 491.247 489.315 491.247C489.528 491.14 489.741 491.034 489.954 490.874C490.061 490.821 490.167 490.714 490.327 490.661C490.487 490.501 490.7 490.394 490.86 490.234C490.967 490.128 491.073 490.075 491.127 489.968C491.286 489.755 491.446 489.542 491.606 489.329C491.606 489.275 491.713 489.169 491.766 489.116C491.979 488.796 492.139 488.476 492.245 488.156ZM319.553 83.0412C338.576 96.0956 355.52 111.335 370.226 128.332C356.372 137.87 338.842 143.039 320.139 143.039C301.437 143.039 283.214 137.55 269.36 127.799C283.96 111.015 300.744 95.8825 319.607 82.9879L319.553 83.0412ZM155.706 465.245C155.493 465.617 155.333 465.99 155.12 466.363C153.628 454.961 152.882 443.345 152.882 431.782C152.882 381.643 166.736 333.634 193.165 291.7C193.058 294.63 193.005 297.508 193.005 300.438C193.005 332.835 198.493 364.219 209.31 394.004C187.73 414.572 169.72 438.496 155.706 465.191V465.245ZM384.986 438.869H254.068V427.786H384.986V438.869ZM231.476 415.904C213.839 379.831 204.94 341.04 204.94 300.492C204.94 240.228 225.401 182.948 261.741 137.017C277.779 148.633 298.293 154.974 320.193 154.974C342.092 154.974 361.914 148.793 377.899 137.55C413.972 183.374 434.273 240.494 434.273 300.492C434.273 341.04 425.321 379.831 407.738 415.904H231.476ZM429.797 394.058C440.614 364.219 446.102 332.888 446.102 300.492C446.102 297.561 446.102 294.63 445.942 291.753C472.371 333.634 486.224 381.696 486.224 431.836C486.224 443.398 485.479 454.961 483.987 466.417C483.773 466.044 483.614 465.671 483.4 465.298C469.387 438.656 451.377 414.732 429.797 394.111V394.058Z" fill="#111111"/>
<path d="M319.553 169.84C282.521 169.84 252.416 199.945 252.416 236.978C252.416 274.01 282.521 304.115 319.553 304.115C356.585 304.115 386.691 274.01 386.691 236.978C386.691 199.945 356.585 169.84 319.553 169.84ZM319.553 292.233C289.075 292.233 264.298 267.456 264.298 236.978C264.298 206.499 289.075 181.722 319.553 181.722C350.032 181.722 374.808 206.499 374.808 236.978C374.808 267.456 350.032 292.233 319.553 292.233Z" fill="#111111"/>
<path d="M319.553 188.969C299.519 188.969 281.456 201.597 274.529 220.353C273.41 223.443 274.955 226.854 278.045 227.973C278.738 228.239 279.431 228.346 280.123 228.346C282.521 228.346 284.812 226.854 285.718 224.456C290.94 210.336 304.581 200.851 319.607 200.851C322.91 200.851 325.574 198.187 325.574 194.883C325.574 191.58 322.91 188.916 319.607 188.916L319.553 188.969Z" fill="#111111"/>
<path d="M283.427 236.978C283.427 233.674 280.763 231.01 277.459 231.01C274.156 231.01 271.492 233.674 271.492 236.978C271.492 245.29 273.676 253.495 277.726 260.689C278.845 262.607 280.816 263.673 282.894 263.673C283.907 263.673 284.919 263.406 285.825 262.873C288.702 261.275 289.661 257.598 288.063 254.774C284.972 249.393 283.374 243.212 283.374 236.924L283.427 236.978Z" fill="#111111"/>
<path d="M318.861 323.457C315.557 323.457 312.893 326.121 312.893 329.425V390.754C312.893 394.058 315.557 396.722 318.861 396.722C322.164 396.722 324.828 394.058 324.828 390.754V329.425C324.828 326.121 322.164 323.457 318.861 323.457Z" fill="#111111"/>
<path d="M360.049 457.465C356.958 458.584 355.36 461.994 356.532 465.085C367.828 495.989 350.937 520.073 338.416 532.701C337.616 524.549 333.514 518.794 329.464 514.425C327.173 511.921 324.722 509.63 322.058 507.232C316.676 502.277 311.135 497.161 307.245 490.075C303.622 483.521 304.954 475.528 311.135 466.363C312.946 463.646 312.254 459.969 309.483 458.104C306.765 456.293 303.089 456.986 301.224 459.756C290.247 476.168 292.752 488.423 296.801 495.829C301.597 504.621 308.151 510.642 313.959 515.97C314.811 516.77 315.664 517.516 316.463 518.315C312.094 521.885 307.245 524.549 302.556 527.107C293.924 531.849 284.493 537.017 280.55 547.887C270.266 530.623 258.117 497.854 288.063 467.216C290.354 464.871 290.301 461.088 287.956 458.797C285.612 456.506 281.829 456.559 279.537 458.904C229.344 510.216 279.857 567.442 280.39 568.029C281.562 569.307 283.161 570 284.812 570C285.612 570 286.464 569.84 287.21 569.467C289.555 568.401 290.993 566.004 290.727 563.446C289.182 547.994 296.375 544.051 308.257 537.497C313.372 534.673 318.967 531.636 324.296 527.213C327.066 531.849 327.652 537.124 324.722 545.33C323.869 547.727 324.615 550.445 326.64 552.043C327.706 552.896 328.985 553.322 330.317 553.322C331.489 553.322 332.608 553.003 333.62 552.31C334.153 551.937 347.208 543.038 357.971 527.533C372.517 506.539 375.874 483.521 367.615 461.035C366.496 457.945 363.086 456.346 359.996 457.518L360.049 457.465Z" fill="#111111"/>
<path d="M319.553 83.0412C338.576 96.0956 355.52 111.335 370.226 128.332C356.372 137.87 338.842 143.039 320.139 143.039C301.437 143.039 283.214 137.55 269.36 127.799C283.96 111.015 300.744 95.8825 319.607 82.9879L319.553 83.0412Z" fill="#FF80CC"/>
<path d="M429.797 394.058C440.614 364.219 446.102 332.888 446.102 300.492C446.102 297.561 446.102 294.63 445.942 291.753C472.371 333.634 486.224 381.696 486.224 431.836C486.224 443.398 485.479 454.961 483.987 466.417C483.773 466.044 483.614 465.671 483.4 465.298C469.387 438.656 451.377 414.732 429.797 394.111V394.058Z" fill="#FF80CC"/>
<path d="M155.706 465.245C155.493 465.617 155.333 465.99 155.12 466.363C153.628 454.961 152.882 443.345 152.882 431.782C152.882 381.643 166.736 333.634 193.165 291.7C193.058 294.63 193.005 297.508 193.005 300.438C193.005 332.835 198.493 364.219 209.31 394.004C187.73 414.572 169.72 438.496 155.706 465.191V465.245Z" fill="#FF80CC"/>
<path fill-rule="evenodd" clip-rule="evenodd" d="M319.553 292.233C289.075 292.233 264.298 267.456 264.298 236.978C264.298 206.499 289.075 181.722 319.553 181.722C350.032 181.722 374.808 206.499 374.808 236.978C374.808 267.456 350.032 292.233 319.553 292.233ZM274.529 220.353C281.456 201.597 299.519 188.969 319.553 188.969L319.607 188.916C322.91 188.916 325.574 191.58 325.574 194.883C325.574 198.187 322.91 200.851 319.607 200.851C304.581 200.851 290.94 210.336 285.718 224.456C284.812 226.854 282.521 228.346 280.123 228.346C279.431 228.346 278.738 228.239 278.045 227.973C274.955 226.854 273.41 223.443 274.529 220.353ZM277.459 231.01C280.763 231.01 283.427 233.674 283.427 236.978L283.374 236.924C283.374 243.212 284.972 249.393 288.063 254.774C289.661 257.598 288.702 261.275 285.825 262.873C284.919 263.406 283.907 263.673 282.894 263.673C280.816 263.673 278.845 262.607 277.726 260.689C273.676 253.495 271.492 245.29 271.492 236.978C271.492 233.674 274.156 231.01 277.459 231.01Z" fill="#9EEBCF"/>
<path fill-rule="evenodd" clip-rule="evenodd" d="M231.476 415.904C213.839 379.831 204.94 341.04 204.94 300.492C204.94 240.228 225.401 182.948 261.741 137.017C277.779 148.633 298.293 154.974 320.193 154.974C342.092 154.974 361.914 148.793 377.899 137.55C413.972 183.374 434.273 240.494 434.273 300.492C434.273 341.04 425.321 379.831 407.738 415.904H231.476ZM252.416 236.978C252.416 199.945 282.521 169.84 319.553 169.84C356.585 169.84 386.691 199.945 386.691 236.978C386.691 274.01 356.585 304.115 319.553 304.115C282.521 304.115 252.416 274.01 252.416 236.978ZM312.893 329.425C312.893 326.121 315.557 323.457 318.861 323.457C322.164 323.457 324.828 326.121 324.828 329.425V390.754C324.828 394.058 322.164 396.722 318.861 396.722C315.557 396.722 312.893 394.058 312.893 390.754V329.425Z" fill="#FFA3D7"/>
<path d="M384.986 438.869H254.068V427.786H384.986V438.869Z" fill="#FF80CC"/>
</g>
<defs>
<clipPath id="clip0_1123_118">
<rect width="640" height="640" fill="white"/>
</clipPath>
</defs>
</svg>
