<svg width="640" height="640" viewBox="0 0 640 640" fill="none" xmlns="http://www.w3.org/2000/svg">
<g clip-path="url(#clip0_1123_65)">
<path d="M537.269 292.472C589.866 406.942 696.373 523.73 602.992 608.287C519.734 683.677 430.57 567.524 318.252 567.762C202.17 568.008 113.813 686.301 24.3614 612.317C-94.5398 513.977 257.432 487.431 314.433 344.046C361.08 226.705 32.8814 91.2303 320.112 20.7534C666.289 -64.1869 480.554 169.041 537.269 292.472Z" fill="#FBF1A9"/>
<path d="M446.756 108.662L349.31 86.4535C347.588 86.0379 345.807 86.3942 344.322 87.2849C342.837 88.235 341.769 89.7195 341.412 91.4416L328.467 148.27L322.885 172.617L317.303 196.963L311.781 221.31L306.021 246.488H295.094L266.769 140.669C266.769 140.669 266.65 140.372 266.591 140.254C266.532 140.016 266.413 139.778 266.354 139.541C266.235 139.363 266.116 139.185 266.057 139.006C265.938 138.828 265.879 138.71 265.819 138.531C265.819 138.531 265.76 138.472 265.7 138.413C265.7 138.413 265.7 138.294 265.641 138.294L213.504 72.4988C211.841 70.4204 209.109 69.5297 206.556 70.2423C204.003 70.8955 202.102 73.0332 201.687 75.646L189.454 158.662C189.454 158.662 189.454 158.781 189.454 158.84C189.454 158.84 189.454 158.959 189.454 159.018C189.454 159.196 189.454 159.374 189.454 159.553C189.454 159.79 189.454 159.968 189.454 160.206C189.454 160.443 189.513 160.681 189.573 160.918C189.573 161.037 189.573 161.215 189.632 161.334L212.435 246.488H194.62C192.779 246.488 190.998 247.26 189.751 248.625C188.504 249.991 187.851 251.832 188.029 253.673L213.029 563.884C213.326 567.328 216.176 570 219.62 570H407.029C410.473 570 413.324 567.328 413.621 563.884L438.62 253.673C438.798 251.832 438.145 249.991 436.898 248.625C435.651 247.26 433.87 246.488 432.029 246.488H422.172L451.803 116.56C452.634 112.997 450.378 109.434 446.815 108.603L446.756 108.662ZM260.594 246.547L237.732 160.978C243.848 159.018 250.142 156.346 256.318 152.842L281.377 246.547H260.594ZM212.613 92.748L212.67 92.8206L250.677 140.847C232.981 151.18 213.741 153.021 203.706 153.258L212.67 92.8206L212.672 92.8074L212.613 92.748ZM204.715 166.5C209.941 166.382 216.948 165.847 224.905 164.303L246.936 246.547H226.152L204.715 166.5ZM400.854 556.817H225.677L201.746 259.789H220.986H424.725L400.794 556.758L400.854 556.817ZM408.514 246.606H319.619L323.241 230.811L337.077 233.958C337.552 234.077 338.087 234.136 338.562 234.136C341.59 234.136 344.322 232.058 345.035 228.97C345.866 225.407 343.609 221.844 340.046 221.013L326.211 217.866L328.823 206.405L342.659 209.552C343.134 209.671 343.669 209.73 344.144 209.73C347.172 209.73 349.904 207.652 350.616 204.564C351.448 201.001 349.191 197.438 345.628 196.607L331.792 193.46L334.405 181.999L348.241 185.146C348.716 185.265 349.251 185.324 349.726 185.324C352.754 185.324 355.486 183.246 356.198 180.158C357.03 176.595 354.773 173.032 351.21 172.201L337.374 169.054L339.987 157.593L353.823 160.74C354.298 160.859 354.833 160.918 355.308 160.918C358.336 160.918 361.068 158.84 361.78 155.752C362.612 152.189 360.355 148.626 356.792 147.795L342.956 144.648L345.569 133.187L359.405 136.334C359.88 136.453 360.414 136.512 360.89 136.512C363.918 136.512 366.65 134.434 367.362 131.346C368.193 127.783 365.937 124.22 362.374 123.389L348.538 120.242L352.992 100.705L437.492 119.945L408.692 246.369L408.514 246.606Z" fill="#111111"/>
<path d="M408.514 246.606H319.619L323.241 230.811L337.077 233.958C337.552 234.077 338.087 234.136 338.562 234.136C341.59 234.136 344.322 232.058 345.035 228.97C345.866 225.407 343.609 221.844 340.046 221.013L326.211 217.866L328.823 206.405L342.659 209.552C343.134 209.671 343.669 209.73 344.144 209.73C347.172 209.73 349.904 207.652 350.616 204.564C351.448 201.001 349.191 197.438 345.628 196.607L331.792 193.46L334.405 181.999L348.241 185.146C348.716 185.265 349.251 185.324 349.726 185.324C352.754 185.324 355.486 183.246 356.198 180.158C357.03 176.595 354.773 173.032 351.21 172.201L337.374 169.054L339.987 157.593L353.823 160.74C354.298 160.859 354.833 160.918 355.308 160.918C358.336 160.918 361.068 158.84 361.78 155.752C362.612 152.189 360.355 148.626 356.792 147.795L342.956 144.648L345.569 133.187L359.405 136.334C359.88 136.453 360.414 136.512 360.89 136.512C363.918 136.512 366.65 134.434 367.362 131.346C368.193 127.783 365.937 124.22 362.374 123.389L348.538 120.242L352.992 100.705L437.492 119.945L408.692 246.369L408.514 246.606Z" fill="#DDDDDD"/>
<path d="M260.594 246.547L237.732 160.978C243.848 159.018 250.142 156.346 256.318 152.842L281.377 246.547H260.594Z" fill="#FFD700"/>
<path d="M204.715 166.5C209.941 166.382 216.948 165.847 224.905 164.303L246.936 246.547H226.152L204.715 166.5Z" fill="#FFB700"/>
<path d="M250.677 140.847L212.67 92.8206L203.706 153.258C213.741 153.021 232.981 151.18 250.677 140.847Z" fill="#FFFCEB"/>
<path d="M400.854 556.817H225.677L201.746 259.789H220.986H424.725L400.794 556.758L400.854 556.817Z" fill="#FFFCEB"/>
</g>
<defs>
<clipPath id="clip0_1123_65">
<rect width="640" height="640" fill="white"/>
</clipPath>
</defs>
</svg>
