<svg width="760" height="760" viewBox="0 0 760 760" fill="none" xmlns="http://www.w3.org/2000/svg">
<path d="M697.648 276.32C681.84 406.202 521.098 468.884 414.922 541.895C312.995 612.013 342.973 694.56 273.392 699.732C194.826 705.376 117.782 622.189 90.0065 546.58C39.8817 409.748 50.2369 205.229 162.006 114.183C278.909 18.6948 480.394 63.5588 610.083 139.975C656.15 167.111 704.125 222.356 697.648 276.32Z" fill="#E8FDF5"/>
<path d="M389.061 329.22C361.057 329.22 338.199 352.024 338.199 380.081C338.199 408.139 361.003 430.943 389.061 430.943C417.118 430.943 439.922 408.139 439.922 380.081C439.922 352.024 417.118 329.22 389.061 329.22ZM389.061 418.809C367.665 418.809 350.332 401.422 350.332 380.081C350.332 358.74 367.72 341.353 389.061 341.353C410.402 341.353 427.789 358.74 427.789 380.081C427.789 401.422 410.402 418.809 389.061 418.809Z" fill="#111111"/>
<path d="M192.332 330.358C205.224 347.636 222.611 365.836 244.223 384.631C253.214 392.431 262.964 400.285 273.147 407.976C274.23 408.789 275.53 409.222 276.776 409.222C278.618 409.222 280.405 408.41 281.597 406.839C283.601 404.185 283.059 400.393 280.405 398.389C270.439 390.86 260.906 383.169 252.131 375.531C231.819 357.928 214.865 340.216 202.624 324.02C208.961 318.17 212.969 309.829 212.969 300.512C212.969 282.855 198.615 268.555 181.012 268.555C180.795 268.555 180.578 268.555 180.362 268.555C180.849 265.847 181.716 263.301 183.016 261.08C195.745 239.035 248.231 240.064 316.696 263.734C339.229 271.534 362.736 281.446 386.407 293.2C399.785 299.808 413.381 307.121 426.76 314.812C439.922 322.395 452.976 330.52 465.65 338.916C479.354 348.015 492.462 357.494 504.704 367.027C505.787 367.894 507.141 368.327 508.441 368.327C510.228 368.327 512.016 367.515 513.208 365.998C515.266 363.344 514.778 359.553 512.178 357.494C499.72 347.799 486.342 338.157 472.421 328.841C459.53 320.283 446.259 312.05 432.88 304.358C419.285 296.504 405.473 289.138 391.877 282.367C369.453 271.263 347.191 261.73 325.687 254.039C339.608 185.844 364.307 142.025 389.169 142.025C409.86 142.025 430.876 172.574 445.393 223.814C446.313 227.01 449.617 228.906 452.867 227.985C456.063 227.064 457.959 223.76 457.038 220.51C440.409 162.174 416.306 130 389.061 130C357.482 130 329.641 174.741 314.042 250.084C240.973 225.927 188.27 227.66 172.508 255.014C169.745 259.834 168.175 265.305 167.85 271.317C156.746 276.355 149 287.513 149 300.458C149 318.062 163.354 332.416 180.958 332.416C184.912 332.416 188.703 331.657 192.224 330.303L192.332 330.358ZM161.187 300.458C161.187 289.463 170.124 280.58 181.066 280.58C192.007 280.58 200.945 289.517 200.945 300.458C200.945 311.4 192.007 320.337 181.066 320.337C170.124 320.337 161.187 311.4 161.187 300.458Z" fill="#111111"/>
<path d="M466.192 458.133C462.888 457.754 459.855 460.083 459.476 463.387C457.905 476.333 455.901 488.954 453.626 500.924C448.642 526.653 442.305 549.023 434.668 567.439C431.31 566.247 427.681 565.543 423.889 565.543C406.285 565.543 391.931 579.897 391.931 597.501C391.931 604.434 394.206 610.88 397.998 616.134C395.019 617.325 392.094 617.975 389.169 617.975C363.711 617.975 338.362 572.043 324.658 500.87C320.162 477.525 317.021 452.229 315.342 425.743C314.367 410.901 313.879 395.464 313.879 379.973C313.879 364.482 314.367 349.099 315.342 334.203C316.208 320.445 317.508 306.796 319.187 293.688C319.621 290.383 317.292 287.35 313.933 286.917C310.629 286.484 307.596 288.813 307.163 292.171C305.484 305.496 304.129 319.416 303.263 333.445C302.288 348.557 301.8 364.211 301.8 379.973C301.8 395.735 302.288 411.389 303.263 426.501C304.834 451.579 307.759 475.575 311.821 497.945C245.793 519.99 195.474 520.478 183.07 498.92C172.833 481.208 188.378 448.113 224.669 410.468C226.998 408.085 226.89 404.239 224.506 401.91C222.123 399.581 218.277 399.689 215.948 402.072C174.512 445.08 159.075 481.641 172.562 504.986C180.958 519.557 199.807 526.869 226.619 526.869C250.181 526.869 279.918 521.236 314.042 509.916C329.641 585.259 357.482 630 389.061 630C395.29 630 401.465 628.267 407.423 624.8C412.243 627.671 417.822 629.404 423.835 629.404C441.439 629.404 455.792 615.05 455.792 597.447C455.792 587.968 451.622 579.518 445.068 573.614C453.301 554.06 460.126 530.39 465.38 503.091C467.763 490.849 469.767 477.958 471.392 464.742C471.771 461.438 469.442 458.404 466.138 458.025L466.192 458.133ZM423.835 617.434C412.839 617.434 403.956 608.496 403.956 597.555C403.956 586.614 412.893 577.676 423.835 577.676C434.776 577.676 443.713 586.614 443.713 597.555C443.713 608.496 434.776 617.434 423.835 617.434Z" fill="#111111"/>
<path d="M539.153 380.027C596.622 328.841 621.43 282.313 605.668 255.014C603.989 252.034 601.822 249.326 599.168 246.943C599.493 245.155 599.655 243.368 599.655 241.526C599.655 223.868 585.302 209.569 567.698 209.569C552.748 209.569 540.182 219.914 536.715 233.835C514.02 235.839 486.775 242.176 457.58 252.305C447.505 255.772 437.105 259.78 426.651 264.059C423.564 265.359 422.102 268.88 423.402 271.967C424.376 274.296 426.597 275.705 428.981 275.705C429.739 275.705 430.551 275.542 431.31 275.217C441.547 270.992 451.676 267.092 461.588 263.68C489.158 254.147 514.724 248.08 536.12 245.968C538.34 261.459 551.611 273.43 567.752 273.43C578.748 273.43 588.443 267.851 594.185 259.401C594.564 259.943 594.889 260.43 595.214 260.972C607.943 283.017 580.806 327.92 526.099 375.369C508.17 390.914 487.804 406.297 465.65 421.03C452.976 429.426 439.922 437.551 426.76 445.134C413.381 452.879 399.785 460.138 386.407 466.746C377.036 471.404 367.557 475.791 358.241 479.908C355.207 481.262 353.799 484.783 355.153 487.87C356.128 490.145 358.349 491.499 360.678 491.499C361.491 491.499 362.303 491.337 363.116 491.012C372.594 486.841 382.236 482.345 391.769 477.633C405.364 470.916 419.177 463.496 432.772 455.642C446.151 447.95 459.421 439.663 472.313 431.105C493.275 417.13 512.612 402.614 529.945 387.935C582.052 434.084 607.618 477.416 595.16 498.92C584.056 518.203 541.644 519.936 484.5 503.524C481.304 502.603 477.946 504.445 477.025 507.641C476.104 510.836 477.946 514.195 481.142 515.115C508.333 522.915 532.111 526.761 551.611 526.761C578.477 526.761 597.272 519.394 605.614 504.878C621.43 477.525 596.568 431.051 539.153 379.865V380.027ZM567.698 261.405C556.702 261.405 547.819 252.468 547.819 241.526C547.819 230.585 556.757 221.648 567.698 221.648C578.639 221.648 587.577 230.585 587.577 241.526C587.577 252.468 578.639 261.405 567.698 261.405Z" fill="#111111"/>
<path d="M161.187 300.458C161.187 289.463 170.124 280.58 181.066 280.58C192.007 280.58 200.945 289.517 200.945 300.458C200.945 311.4 192.007 320.337 181.066 320.337C170.124 320.337 161.187 311.4 161.187 300.458Z" fill="#19A974"/>
<path d="M389.061 418.809C367.665 418.809 350.332 401.422 350.332 380.081C350.332 358.74 367.72 341.353 389.061 341.353C410.402 341.353 427.789 358.74 427.789 380.081C427.789 401.422 410.402 418.809 389.061 418.809Z" fill="#39CCCC"/>
<path d="M567.698 261.405C556.702 261.405 547.819 252.468 547.819 241.526C547.819 230.585 556.757 221.648 567.698 221.648C578.639 221.648 587.577 230.585 587.577 241.526C587.577 252.468 578.639 261.405 567.698 261.405Z" fill="#7FDBFF"/>
<path d="M423.835 617.434C412.839 617.434 403.956 608.496 403.956 597.555C403.956 586.614 412.893 577.676 423.835 577.676C434.776 577.676 443.713 586.614 443.713 597.555C443.713 608.496 434.776 617.434 423.835 617.434Z" fill="#01FF70"/>
</svg>
