<svg width="640" height="640" viewBox="0 0 640 640" fill="none" xmlns="http://www.w3.org/2000/svg">
<g clip-path="url(#clip0_1123_51)">
<path d="M637.648 216.32C621.84 346.202 461.098 408.884 354.922 481.895C252.995 552.013 282.973 634.56 213.392 639.732C134.826 645.376 57.7825 562.189 30.0065 486.58C-20.1183 349.748 -9.76312 145.229 102.006 54.1828C218.909 -41.3052 420.394 3.55876 550.083 79.9748C596.15 107.111 644.125 162.356 637.648 216.32Z" fill="#E8FDF5"/>
<path d="M329.061 269.22C301.057 269.22 278.199 292.024 278.199 320.081C278.199 348.139 301.003 370.943 329.061 370.943C357.118 370.943 379.922 348.139 379.922 320.081C379.922 292.024 357.118 269.22 329.061 269.22ZM329.061 358.809C307.665 358.809 290.332 341.422 290.332 320.081C290.332 298.74 307.72 281.353 329.061 281.353C350.402 281.353 367.789 298.74 367.789 320.081C367.789 341.422 350.402 358.809 329.061 358.809Z" fill="#111111"/>
<path d="M132.332 270.358C145.224 287.636 162.611 305.836 184.223 324.631C193.214 332.431 202.964 340.285 213.147 347.976C214.23 348.789 215.53 349.222 216.776 349.222C218.618 349.222 220.405 348.41 221.597 346.839C223.601 344.185 223.059 340.393 220.405 338.389C210.439 330.86 200.906 323.169 192.131 315.531C171.819 297.928 154.865 280.216 142.624 264.02C148.961 258.17 152.969 249.829 152.969 240.512C152.969 222.855 138.615 208.555 121.012 208.555C120.795 208.555 120.578 208.555 120.362 208.555C120.849 205.847 121.716 203.301 123.016 201.08C135.745 179.035 188.231 180.064 256.696 203.734C279.229 211.534 302.736 221.446 326.407 233.2C339.785 239.808 353.381 247.121 366.76 254.812C379.922 262.395 392.976 270.52 405.65 278.916C419.354 288.015 432.462 297.494 444.704 307.027C445.787 307.894 447.141 308.327 448.441 308.327C450.228 308.327 452.016 307.515 453.208 305.998C455.266 303.344 454.778 299.553 452.178 297.494C439.72 287.799 426.342 278.157 412.421 268.841C399.53 260.283 386.259 252.05 372.88 244.358C359.285 236.504 345.473 229.138 331.877 222.367C309.453 211.263 287.191 201.73 265.687 194.039C279.608 125.844 304.307 82.0247 329.169 82.0247C349.86 82.0247 370.876 112.574 385.393 163.814C386.313 167.01 389.617 168.906 392.867 167.985C396.063 167.064 397.959 163.76 397.038 160.51C380.409 102.174 356.306 70 329.061 70C297.482 70 269.641 114.741 254.042 190.084C180.973 165.927 128.27 167.66 112.508 195.014C109.745 199.834 108.175 205.305 107.85 211.317C96.7456 216.355 89 227.513 89 240.458C89 258.062 103.354 272.416 120.958 272.416C124.912 272.416 128.703 271.657 132.224 270.303L132.332 270.358ZM101.187 240.458C101.187 229.463 110.124 220.58 121.066 220.58C132.007 220.58 140.945 229.517 140.945 240.458C140.945 251.4 132.007 260.337 121.066 260.337C110.124 260.337 101.187 251.4 101.187 240.458Z" fill="#111111"/>
<path d="M406.192 398.133C402.888 397.754 399.855 400.083 399.476 403.387C397.905 416.333 395.901 428.954 393.626 440.924C388.642 466.653 382.305 489.023 374.668 507.439C371.31 506.247 367.681 505.543 363.889 505.543C346.285 505.543 331.931 519.897 331.931 537.501C331.931 544.434 334.206 550.88 337.998 556.134C335.019 557.325 332.094 557.975 329.169 557.975C303.711 557.975 278.362 512.043 264.658 440.87C260.162 417.525 257.021 392.229 255.342 365.743C254.367 350.901 253.879 335.464 253.879 319.973C253.879 304.482 254.367 289.099 255.342 274.203C256.208 260.445 257.508 246.796 259.187 233.688C259.621 230.383 257.292 227.35 253.933 226.917C250.629 226.484 247.596 228.813 247.163 232.171C245.484 245.496 244.129 259.416 243.263 273.445C242.288 288.557 241.8 304.211 241.8 319.973C241.8 335.735 242.288 351.389 243.263 366.501C244.834 391.579 247.759 415.575 251.821 437.945C185.793 459.99 135.474 460.478 123.07 438.92C112.833 421.208 128.378 388.113 164.669 350.468C166.998 348.085 166.89 344.239 164.506 341.91C162.123 339.581 158.277 339.689 155.948 342.072C114.512 385.08 99.0747 421.641 112.562 444.986C120.958 459.557 139.807 466.869 166.619 466.869C190.181 466.869 219.918 461.236 254.042 449.916C269.641 525.259 297.482 570 329.061 570C335.29 570 341.465 568.267 347.423 564.8C352.243 567.671 357.822 569.404 363.835 569.404C381.439 569.404 395.792 555.05 395.792 537.447C395.792 527.968 391.622 519.518 385.068 513.614C393.301 494.06 400.126 470.39 405.38 443.091C407.763 430.849 409.767 417.958 411.392 404.742C411.771 401.438 409.442 398.404 406.138 398.025L406.192 398.133ZM363.835 557.434C352.839 557.434 343.956 548.496 343.956 537.555C343.956 526.614 352.893 517.676 363.835 517.676C374.776 517.676 383.713 526.614 383.713 537.555C383.713 548.496 374.776 557.434 363.835 557.434Z" fill="#111111"/>
<path d="M479.153 320.027C536.622 268.841 561.43 222.313 545.668 195.014C543.989 192.034 541.822 189.326 539.168 186.943C539.493 185.155 539.655 183.368 539.655 181.526C539.655 163.868 525.302 149.569 507.698 149.569C492.748 149.569 480.182 159.914 476.715 173.835C454.02 175.839 426.775 182.176 397.58 192.305C387.505 195.772 377.105 199.78 366.651 204.059C363.564 205.359 362.102 208.88 363.402 211.967C364.376 214.296 366.597 215.705 368.981 215.705C369.739 215.705 370.551 215.542 371.31 215.217C381.547 210.992 391.676 207.092 401.588 203.68C429.158 194.147 454.724 188.08 476.12 185.968C478.34 201.459 491.611 213.43 507.752 213.43C518.748 213.43 528.443 207.851 534.185 199.401C534.564 199.943 534.889 200.43 535.214 200.972C547.943 223.017 520.806 267.92 466.099 315.369C448.17 330.914 427.804 346.297 405.65 361.03C392.976 369.426 379.922 377.551 366.76 385.134C353.381 392.879 339.785 400.138 326.407 406.746C317.036 411.404 307.557 415.791 298.241 419.908C295.207 421.262 293.799 424.783 295.153 427.87C296.128 430.145 298.349 431.499 300.678 431.499C301.491 431.499 302.303 431.337 303.116 431.012C312.594 426.841 322.236 422.345 331.769 417.633C345.364 410.916 359.177 403.496 372.772 395.642C386.151 387.95 399.421 379.663 412.313 371.105C433.275 357.13 452.612 342.614 469.945 327.935C522.052 374.084 547.618 417.416 535.16 438.92C524.056 458.203 481.644 459.936 424.5 443.524C421.304 442.603 417.946 444.445 417.025 447.641C416.104 450.836 417.946 454.195 421.142 455.115C448.333 462.915 472.111 466.761 491.611 466.761C518.477 466.761 537.272 459.394 545.614 444.878C561.43 417.525 536.568 371.051 479.153 319.865V320.027ZM507.698 201.405C496.702 201.405 487.819 192.468 487.819 181.526C487.819 170.585 496.757 161.648 507.698 161.648C518.639 161.648 527.577 170.585 527.577 181.526C527.577 192.468 518.639 201.405 507.698 201.405Z" fill="#111111"/>
<path d="M101.187 240.458C101.187 229.463 110.124 220.58 121.066 220.58C132.007 220.58 140.945 229.517 140.945 240.458C140.945 251.4 132.007 260.337 121.066 260.337C110.124 260.337 101.187 251.4 101.187 240.458Z" fill="#19A974"/>
<path d="M329.061 358.809C307.665 358.809 290.332 341.422 290.332 320.081C290.332 298.74 307.72 281.353 329.061 281.353C350.402 281.353 367.789 298.74 367.789 320.081C367.789 341.422 350.402 358.809 329.061 358.809Z" fill="#39CCCC"/>
<path d="M507.698 201.405C496.702 201.405 487.819 192.468 487.819 181.526C487.819 170.585 496.757 161.648 507.698 161.648C518.639 161.648 527.577 170.585 527.577 181.526C527.577 192.468 518.639 201.405 507.698 201.405Z" fill="#7FDBFF"/>
<path d="M363.835 557.434C352.839 557.434 343.956 548.496 343.956 537.555C343.956 526.614 352.893 517.676 363.835 517.676C374.776 517.676 383.713 526.614 383.713 537.555C383.713 548.496 374.776 557.434 363.835 557.434Z" fill="#01FF70"/>
</g>
<defs>
<clipPath id="clip0_1123_51">
<rect width="640" height="640" fill="white"/>
</clipPath>
</defs>
</svg>
