<svg width="760" height="760" viewBox="0 0 760 760" fill="none" xmlns="http://www.w3.org/2000/svg">
<path d="M597.269 352.472C649.866 466.942 756.373 583.73 662.992 668.287C579.734 743.677 490.57 627.524 378.252 627.762C262.17 628.009 173.813 746.301 84.3615 672.317C-34.5397 573.977 317.432 547.431 374.433 404.046C421.08 286.705 92.8814 151.23 380.112 80.7535C726.289 -4.18679 540.554 229.041 597.269 352.472Z" fill="#FBF1A9"/>
<path d="M506.756 168.662L409.31 146.454C407.588 146.038 405.807 146.394 404.322 147.285C402.837 148.235 401.769 149.72 401.412 151.442L388.467 208.27L382.885 232.617L377.303 256.963L371.781 281.31L366.021 306.488H355.094L326.769 200.669C326.769 200.669 326.65 200.372 326.591 200.254C326.532 200.016 326.413 199.778 326.354 199.541C326.235 199.363 326.116 199.185 326.057 199.006C325.938 198.828 325.879 198.71 325.819 198.531C325.819 198.531 325.76 198.472 325.7 198.413C325.7 198.413 325.7 198.294 325.641 198.294L273.504 132.499C271.841 130.42 269.109 129.53 266.556 130.242C264.003 130.895 262.102 133.033 261.687 135.646L249.454 218.662C249.454 218.662 249.454 218.781 249.454 218.84C249.454 218.84 249.454 218.959 249.454 219.018C249.454 219.196 249.454 219.374 249.454 219.553C249.454 219.79 249.454 219.968 249.454 220.206C249.454 220.443 249.513 220.681 249.573 220.918C249.573 221.037 249.573 221.215 249.632 221.334L272.435 306.488H254.62C252.779 306.488 250.998 307.26 249.751 308.625C248.504 309.991 247.851 311.832 248.029 313.673L273.029 623.884C273.326 627.328 276.176 630 279.62 630H467.029C470.473 630 473.324 627.328 473.621 623.884L498.62 313.673C498.798 311.832 498.145 309.991 496.898 308.625C495.651 307.26 493.87 306.488 492.029 306.488H482.172L511.803 176.56C512.634 172.997 510.378 169.434 506.815 168.603L506.756 168.662ZM320.594 306.547L297.732 220.978C303.848 219.018 310.142 216.346 316.318 212.842L341.377 306.547H320.594ZM272.613 152.748L272.67 152.821L310.677 200.847C292.981 211.18 273.741 213.021 263.706 213.258L272.67 152.821L272.672 152.807L272.613 152.748ZM264.715 226.5C269.941 226.382 276.948 225.847 284.905 224.303L306.936 306.547H286.152L264.715 226.5ZM460.854 616.817H285.677L261.746 319.789H280.986H484.725L460.794 616.758L460.854 616.817ZM468.514 306.606H379.619L383.241 290.811L397.077 293.958C397.552 294.077 398.087 294.136 398.562 294.136C401.59 294.136 404.322 292.058 405.035 288.97C405.866 285.407 403.609 281.844 400.046 281.013L386.211 277.866L388.823 266.405L402.659 269.552C403.134 269.671 403.669 269.73 404.144 269.73C407.172 269.73 409.904 267.652 410.616 264.564C411.448 261.001 409.191 257.438 405.628 256.607L391.792 253.46L394.405 241.999L408.241 245.146C408.716 245.265 409.251 245.324 409.726 245.324C412.754 245.324 415.486 243.246 416.198 240.158C417.03 236.595 414.773 233.032 411.21 232.201L397.374 229.054L399.987 217.593L413.823 220.74C414.298 220.859 414.833 220.918 415.308 220.918C418.336 220.918 421.068 218.84 421.78 215.752C422.612 212.189 420.355 208.626 416.792 207.795L402.956 204.648L405.569 193.187L419.405 196.334C419.88 196.453 420.414 196.512 420.89 196.512C423.918 196.512 426.65 194.434 427.362 191.346C428.193 187.783 425.937 184.22 422.374 183.389L408.538 180.242L412.992 160.705L497.492 179.945L468.692 306.369L468.514 306.606Z" fill="#111111"/>
<path d="M468.514 306.606H379.619L383.241 290.811L397.077 293.958C397.552 294.077 398.087 294.136 398.562 294.136C401.59 294.136 404.322 292.058 405.035 288.97C405.866 285.407 403.609 281.844 400.046 281.013L386.211 277.866L388.823 266.405L402.659 269.552C403.134 269.671 403.669 269.73 404.144 269.73C407.172 269.73 409.904 267.652 410.616 264.564C411.448 261.001 409.191 257.438 405.628 256.607L391.792 253.46L394.405 241.999L408.241 245.146C408.716 245.265 409.251 245.324 409.726 245.324C412.754 245.324 415.486 243.246 416.198 240.158C417.03 236.595 414.773 233.032 411.21 232.201L397.374 229.054L399.987 217.593L413.823 220.74C414.298 220.859 414.833 220.918 415.308 220.918C418.336 220.918 421.068 218.84 421.78 215.752C422.612 212.189 420.355 208.626 416.792 207.795L402.956 204.648L405.569 193.187L419.405 196.334C419.88 196.453 420.414 196.512 420.89 196.512C423.918 196.512 426.65 194.434 427.362 191.346C428.193 187.783 425.937 184.22 422.374 183.389L408.538 180.242L412.992 160.705L497.492 179.945L468.692 306.369L468.514 306.606Z" fill="#DDDDDD"/>
<path d="M320.594 306.547L297.732 220.978C303.848 219.018 310.142 216.346 316.318 212.842L341.377 306.547H320.594Z" fill="#FFD700"/>
<path d="M264.715 226.5C269.941 226.382 276.948 225.847 284.905 224.303L306.936 306.547H286.152L264.715 226.5Z" fill="#FFB700"/>
<path d="M310.677 200.847L272.67 152.821L263.706 213.258C273.741 213.021 292.981 211.18 310.677 200.847Z" fill="#FFFCEB"/>
<path d="M460.854 616.817H285.677L261.746 319.789H280.986H484.725L460.794 616.758L460.854 616.817Z" fill="#FFFCEB"/>
</svg>
