<svg width="760" height="760" viewBox="0 0 760 760" fill="none" xmlns="http://www.w3.org/2000/svg">
<path d="M419.744 122.867C532.107 156.745 639.303 231.493 667.846 371.984C692.306 492.379 574.824 676.467 509.985 644.098C445.146 611.729 416.749 508.991 360.433 456.729C284.49 385.99 142.623 410.206 97.782 321.18C65.2234 256.724 122.325 207.11 164.414 173.422C232.933 118.77 337.454 98.0605 419.744 122.867Z" fill="#DDDDDD"/>
<path d="M552.245 548.156C552.245 548.156 552.245 548.156 552.245 548.103C552.352 547.783 552.459 547.517 552.512 547.197C552.512 547.197 552.512 547.144 552.512 547.091C556.189 529.028 558.053 510.432 558.053 491.889C558.053 432.584 539.511 376.104 504.397 328.575C504.29 328.468 504.184 328.362 504.13 328.255C494.753 248.33 450.9 176.237 382.804 130.999C380.832 129.667 378.221 129.667 376.25 130.999C308.153 176.13 264.301 248.276 254.923 328.148C254.816 328.255 254.71 328.362 254.657 328.468C219.543 376.05 201 432.531 201 491.836C201 510.432 202.865 529.028 206.541 547.037C206.541 547.037 206.541 547.091 206.541 547.144C206.595 547.464 206.701 547.73 206.808 547.997V548.103C206.968 548.423 207.128 548.796 207.287 549.062C207.287 549.116 207.394 549.222 207.447 549.275C207.607 549.489 207.767 549.702 207.927 549.915C208.033 550.021 208.14 550.128 208.247 550.181C208.406 550.341 208.566 550.501 208.779 550.607C208.886 550.714 208.993 550.767 209.152 550.874C209.366 550.98 209.579 551.14 209.792 551.247C209.845 551.247 209.952 551.353 210.005 551.353C210.005 551.353 210.111 551.353 210.165 551.353C210.431 551.46 210.698 551.513 210.964 551.62C211.071 551.62 211.177 551.673 211.284 551.726C211.657 551.78 212.03 551.833 212.403 551.833C212.776 551.833 213.095 551.833 213.468 551.726H213.575C213.628 551.726 213.681 551.726 213.735 551.726C214.001 551.673 214.268 551.567 214.534 551.46C214.587 551.46 214.694 551.407 214.747 551.353C215.067 551.194 215.333 551.034 215.653 550.874C215.706 550.874 215.813 550.767 215.866 550.714C216.079 550.554 216.292 550.394 216.452 550.181C216.506 550.128 216.612 550.021 216.665 549.968C216.825 549.755 217.038 549.542 217.198 549.329C217.198 549.275 217.305 549.222 217.305 549.169C217.465 548.902 217.624 548.636 217.784 548.316C220.342 542.455 223.166 536.541 226.203 530.733C238.831 506.702 254.87 484.962 273.945 466.046C276.556 472.281 279.327 478.408 282.417 484.483C283.43 486.507 285.455 487.733 287.746 487.733H302.186V504.73C302.186 508.034 304.85 510.698 308.153 510.698H450.953C454.257 510.698 456.921 508.034 456.921 504.73V487.733H471.361C473.599 487.733 475.677 486.454 476.689 484.483C479.78 478.408 482.551 472.227 485.161 466.046C504.237 484.962 520.275 506.649 532.904 530.733C535.941 536.541 538.765 542.402 541.322 548.316C541.429 548.636 541.642 548.902 541.802 549.169C541.802 549.222 541.909 549.275 541.909 549.329C542.068 549.542 542.228 549.755 542.441 549.968C542.495 550.021 542.601 550.128 542.654 550.181C542.868 550.341 543.027 550.554 543.241 550.714C543.294 550.714 543.4 550.821 543.454 550.874C543.72 551.087 544.04 551.247 544.36 551.353C544.413 551.353 544.519 551.407 544.573 551.46C544.839 551.567 545.105 551.673 545.372 551.726C545.425 551.726 545.478 551.726 545.532 551.726H545.638C546.011 551.78 546.331 551.833 546.704 551.833C547.077 551.833 547.45 551.833 547.823 551.726C547.93 551.726 548.036 551.673 548.143 551.62C548.409 551.567 548.676 551.46 548.942 551.353C548.942 551.353 549.048 551.353 549.102 551.353C549.155 551.353 549.262 551.247 549.315 551.247C549.528 551.14 549.741 551.034 549.954 550.874C550.061 550.821 550.167 550.714 550.327 550.661C550.487 550.501 550.7 550.394 550.86 550.234C550.967 550.128 551.073 550.075 551.127 549.968C551.286 549.755 551.446 549.542 551.606 549.329C551.606 549.275 551.713 549.169 551.766 549.116C551.979 548.796 552.139 548.476 552.245 548.156ZM379.553 143.041C398.576 156.096 415.52 171.335 430.226 188.332C416.372 197.87 398.842 203.039 380.139 203.039C361.437 203.039 343.214 197.55 329.36 187.799C343.96 171.015 360.744 155.883 379.607 142.988L379.553 143.041ZM215.706 525.245C215.493 525.617 215.333 525.99 215.12 526.363C213.628 514.961 212.882 503.345 212.882 491.782C212.882 441.643 226.736 393.634 253.165 351.7C253.058 354.63 253.005 357.508 253.005 360.438C253.005 392.835 258.493 424.219 269.31 454.004C247.73 474.572 229.72 498.496 215.706 525.191V525.245ZM444.986 498.869H314.068V487.786H444.986V498.869ZM291.476 475.904C273.839 439.831 264.94 401.04 264.94 360.492C264.94 300.228 285.401 242.948 321.741 197.017C337.779 208.633 358.293 214.974 380.193 214.974C402.092 214.974 421.914 208.793 437.899 197.55C473.972 243.374 494.273 300.494 494.273 360.492C494.273 401.04 485.321 439.831 467.738 475.904H291.476ZM489.797 454.058C500.614 424.219 506.102 392.888 506.102 360.492C506.102 357.561 506.102 354.63 505.942 351.753C532.371 393.634 546.224 441.696 546.224 491.836C546.224 503.398 545.479 514.961 543.987 526.417C543.773 526.044 543.614 525.671 543.4 525.298C529.387 498.656 511.377 474.732 489.797 454.111V454.058Z" fill="#111111"/>
<path d="M379.553 229.84C342.521 229.84 312.416 259.945 312.416 296.978C312.416 334.01 342.521 364.115 379.553 364.115C416.585 364.115 446.691 334.01 446.691 296.978C446.691 259.945 416.585 229.84 379.553 229.84ZM379.553 352.233C349.075 352.233 324.298 327.456 324.298 296.978C324.298 266.499 349.075 241.722 379.553 241.722C410.032 241.722 434.808 266.499 434.808 296.978C434.808 327.456 410.032 352.233 379.553 352.233Z" fill="#111111"/>
<path d="M379.553 248.969C359.519 248.969 341.456 261.597 334.529 280.353C333.41 283.443 334.955 286.854 338.045 287.973C338.738 288.239 339.431 288.346 340.123 288.346C342.521 288.346 344.812 286.854 345.718 284.456C350.94 270.336 364.581 260.851 379.607 260.851C382.91 260.851 385.574 258.187 385.574 254.883C385.574 251.58 382.91 248.916 379.607 248.916L379.553 248.969Z" fill="#111111"/>
<path d="M343.427 296.978C343.427 293.674 340.763 291.01 337.459 291.01C334.156 291.01 331.492 293.674 331.492 296.978C331.492 305.29 333.676 313.495 337.726 320.689C338.845 322.607 340.816 323.673 342.894 323.673C343.907 323.673 344.919 323.406 345.825 322.873C348.702 321.275 349.661 317.598 348.063 314.774C344.972 309.393 343.374 303.212 343.374 296.924L343.427 296.978Z" fill="#111111"/>
<path d="M378.861 383.457C375.557 383.457 372.893 386.121 372.893 389.425V450.754C372.893 454.058 375.557 456.722 378.861 456.722C382.164 456.722 384.828 454.058 384.828 450.754V389.425C384.828 386.121 382.164 383.457 378.861 383.457Z" fill="#111111"/>
<path d="M420.049 517.465C416.958 518.584 415.36 521.994 416.532 525.085C427.828 555.989 410.937 580.073 398.416 592.701C397.616 584.549 393.514 578.794 389.464 574.425C387.173 571.921 384.722 569.63 382.058 567.232C376.676 562.277 371.135 557.161 367.245 550.075C363.622 543.521 364.954 535.528 371.135 526.363C372.946 523.646 372.254 519.969 369.483 518.104C366.765 516.293 363.089 516.986 361.224 519.756C350.247 536.168 352.752 548.423 356.801 555.829C361.597 564.621 368.151 570.642 373.959 575.97C374.811 576.77 375.664 577.516 376.463 578.315C372.094 581.885 367.245 584.549 362.556 587.107C353.924 591.849 344.493 597.017 340.55 607.887C330.266 590.623 318.117 557.854 348.063 527.216C350.354 524.871 350.301 521.088 347.956 518.797C345.612 516.506 341.829 516.559 339.537 518.904C289.344 570.216 339.857 627.442 340.39 628.029C341.562 629.307 343.161 630 344.812 630C345.612 630 346.464 629.84 347.21 629.467C349.555 628.401 350.993 626.004 350.727 623.446C349.182 607.994 356.375 604.051 368.257 597.497C373.372 594.673 378.967 591.636 384.296 587.213C387.066 591.849 387.652 597.124 384.722 605.33C383.869 607.727 384.615 610.445 386.64 612.043C387.706 612.896 388.985 613.322 390.317 613.322C391.489 613.322 392.608 613.003 393.62 612.31C394.153 611.937 407.208 603.038 417.971 587.533C432.517 566.539 435.874 543.521 427.615 521.035C426.496 517.945 423.086 516.346 419.996 517.518L420.049 517.465Z" fill="#111111"/>
<path d="M379.553 143.041C398.576 156.096 415.52 171.335 430.226 188.332C416.372 197.87 398.842 203.039 380.139 203.039C361.437 203.039 343.214 197.55 329.36 187.799C343.96 171.015 360.744 155.883 379.607 142.988L379.553 143.041Z" fill="#FF80CC"/>
<path d="M489.797 454.058C500.614 424.219 506.102 392.888 506.102 360.492C506.102 357.561 506.102 354.63 505.942 351.753C532.371 393.634 546.224 441.696 546.224 491.836C546.224 503.398 545.479 514.961 543.987 526.417C543.773 526.044 543.614 525.671 543.4 525.298C529.387 498.656 511.377 474.732 489.797 454.111V454.058Z" fill="#FF80CC"/>
<path d="M215.706 525.245C215.493 525.617 215.333 525.99 215.12 526.363C213.628 514.961 212.882 503.345 212.882 491.782C212.882 441.643 226.736 393.634 253.165 351.7C253.058 354.63 253.005 357.508 253.005 360.438C253.005 392.835 258.493 424.219 269.31 454.004C247.73 474.572 229.72 498.496 215.706 525.191V525.245Z" fill="#FF80CC"/>
<path fill-rule="evenodd" clip-rule="evenodd" d="M379.553 352.233C349.075 352.233 324.298 327.456 324.298 296.978C324.298 266.499 349.075 241.722 379.553 241.722C410.032 241.722 434.808 266.499 434.808 296.978C434.808 327.456 410.032 352.233 379.553 352.233ZM334.529 280.353C341.456 261.597 359.519 248.969 379.553 248.969L379.607 248.916C382.91 248.916 385.574 251.58 385.574 254.883C385.574 258.187 382.91 260.851 379.607 260.851C364.581 260.851 350.94 270.336 345.718 284.456C344.812 286.854 342.521 288.346 340.123 288.346C339.431 288.346 338.738 288.239 338.045 287.973C334.955 286.854 333.41 283.443 334.529 280.353ZM337.459 291.01C340.763 291.01 343.427 293.674 343.427 296.978L343.374 296.924C343.374 303.212 344.972 309.393 348.063 314.774C349.661 317.598 348.702 321.275 345.825 322.873C344.919 323.406 343.907 323.673 342.894 323.673C340.816 323.673 338.845 322.607 337.726 320.689C333.676 313.495 331.492 305.29 331.492 296.978C331.492 293.674 334.156 291.01 337.459 291.01Z" fill="#9EEBCF"/>
<path fill-rule="evenodd" clip-rule="evenodd" d="M291.476 475.904C273.839 439.831 264.94 401.04 264.94 360.492C264.94 300.228 285.401 242.948 321.741 197.017C337.779 208.633 358.293 214.974 380.193 214.974C402.092 214.974 421.914 208.793 437.899 197.55C473.972 243.374 494.273 300.494 494.273 360.492C494.273 401.04 485.321 439.831 467.738 475.904H291.476ZM312.416 296.978C312.416 259.945 342.521 229.84 379.553 229.84C416.585 229.84 446.691 259.945 446.691 296.978C446.691 334.01 416.585 364.115 379.553 364.115C342.521 364.115 312.416 334.01 312.416 296.978ZM372.893 389.425C372.893 386.121 375.557 383.457 378.861 383.457C382.164 383.457 384.828 386.121 384.828 389.425V450.754C384.828 454.058 382.164 456.722 378.861 456.722C375.557 456.722 372.893 454.058 372.893 450.754V389.425Z" fill="#FFA3D7"/>
<path d="M444.986 498.869H314.068V487.786H444.986V498.869Z" fill="#FF80CC"/>
</svg>
