<svg width="257" height="256" viewBox="0 0 257 256" fill="none" xmlns="http://www.w3.org/2000/svg">
<path d="M0.688965 128C0.688965 57.3076 57.9965 0 128.689 0C199.381 0 256.689 57.3076 256.689 128C256.689 198.692 199.381 256 128.689 256C57.9965 256 0.688965 198.692 0.688965 128Z" fill="black"/>
<path fill-rule="evenodd" clip-rule="evenodd" d="M128.033 49.0747C132.252 44.8558 140.004 40.3759 148.938 43.2744C153.44 44.735 158.602 47.4927 162.699 52.3131C166.937 57.3008 169.508 63.8948 169.508 71.8947C169.508 82.9038 164.669 90.8693 158.324 95.9008C152.401 100.598 145.514 102.515 140.651 102.911C140.364 102.935 140.076 102.946 139.788 102.946H104.274L95.6935 111.527C93.4579 113.762 95.0412 117.585 98.2028 117.585L159.628 117.585C181.706 117.585 192.814 144.233 177.271 159.914L130.734 206.866C126.511 211.126 118.72 215.659 109.737 212.728C105.24 211.26 100.089 208.498 96.0046 203.678C91.7791 198.693 89.2179 192.108 89.2179 184.124C89.2179 173.115 94.0573 165.149 100.402 160.118C106.325 155.421 113.212 153.503 118.075 153.108C118.362 153.084 118.65 153.072 118.939 153.072L154.072 153.072L162.149 144.924C164.369 142.684 162.782 138.877 159.628 138.877H98.2029C76.0716 138.877 64.9883 112.12 80.6374 96.4708L92.334 84.7742C92.3354 84.7728 92.3369 84.7713 92.3383 84.7698L128.033 49.0747ZM125.567 81.6538H139.257C140.79 81.458 143.213 80.7097 145.094 79.2175C146.697 77.9463 148.216 75.9679 148.216 71.8947C148.216 68.7045 147.287 67.059 146.473 66.1011C145.706 65.1981 144.626 64.444 143.346 63.895C143.265 63.963 143.179 64.0415 143.09 64.1308L125.567 81.6538ZM132.968 174.365H119.47C117.936 174.561 115.514 175.309 113.632 176.801C112.029 178.073 110.51 180.051 110.51 184.124C110.51 187.309 111.436 188.954 112.248 189.911C113.01 190.811 114.083 191.564 115.355 192.113C115.436 192.045 115.522 191.966 115.611 191.876L132.968 174.365Z" fill="white"/>
</svg>
