<svg width="257" height="256" viewBox="0 0 257 256" fill="none" xmlns="http://www.w3.org/2000/svg">
<path d="M0.688965 128C0.688965 57.3076 57.9965 0 128.689 0C199.381 0 256.689 57.3076 256.689 128C256.689 198.692 199.381 256 128.689 256C57.9965 256 0.688965 198.692 0.688965 128Z" fill="black"/>
<path fill-rule="evenodd" clip-rule="evenodd" d="M183.143 183.871C189.008 183.871 197.511 181.596 201.706 173.371C203.821 169.226 205.492 163.721 204.989 157.522C204.468 151.109 201.672 144.738 196.111 139.176C188.458 131.524 179.557 129.351 171.649 130.263C164.266 131.116 158.145 134.57 154.49 137.675C154.274 137.859 154.066 138.051 153.865 138.251L129.178 162.938L117.249 162.938C114.141 162.938 112.584 159.181 114.782 156.983L157.481 114.284C172.829 98.936 162.026 72.6908 140.321 72.5946L75.3328 72.3066C69.4361 72.2805 60.8693 74.5456 56.6622 82.8276C54.5562 86.9734 52.8962 92.4741 53.4069 98.6637C53.9352 105.067 56.7322 111.424 62.2822 116.974C69.9351 124.627 78.8363 126.8 86.7443 125.888C94.1274 125.035 100.248 121.581 103.903 118.476C104.119 118.292 104.327 118.1 104.528 117.9L128.951 93.4767L140.229 93.5266C143.329 93.5404 144.873 97.2897 142.68 99.4822L99.9808 142.181C84.5965 157.566 95.4923 183.871 117.249 183.871L133.51 183.871C133.513 183.871 133.515 183.871 133.517 183.871L183.143 183.871ZM158.781 162.938L168.298 153.422C169.5 152.492 171.704 151.328 174.049 151.058C176.047 150.827 178.478 151.146 181.309 153.978C183.527 156.195 184.025 157.985 184.125 159.217C184.22 160.378 183.993 161.653 183.485 162.924C183.382 162.933 183.267 162.938 183.143 162.938L158.781 162.938ZM99.4785 93.3461L90.0954 102.729C88.8934 103.659 86.6893 104.823 84.344 105.093C82.3459 105.324 79.9149 105.005 77.0835 102.173C74.8694 99.9591 74.3697 98.1723 74.2682 96.9425C74.1728 95.787 74.3957 94.5181 74.8979 93.2517C75.0016 93.2431 75.1161 93.2381 75.2401 93.2387L99.4785 93.3461Z" fill="white"/>
</svg>
