<svg width="1071" height="256" viewBox="0 0 1071 256" fill="none" xmlns="http://www.w3.org/2000/svg">
<path d="M0 128C0 57.3076 57.3076 0 128 0C198.692 0 256 57.3076 256 128C256 198.692 198.692 256 128 256C57.3076 256 0 198.692 0 128Z" fill="#001B44"/>
<path fill-rule="evenodd" clip-rule="evenodd" d="M182.454 183.871C188.319 183.871 196.822 181.596 201.017 173.371C203.131 169.226 204.803 163.721 204.3 157.522C203.779 151.109 200.983 144.738 195.422 139.176C187.769 131.524 178.867 129.351 170.959 130.263C163.576 131.116 157.456 134.57 153.801 137.675C153.585 137.859 153.377 138.051 153.176 138.251L128.489 162.938L116.56 162.938C113.452 162.938 111.895 159.181 114.093 156.983L156.792 114.284C172.14 98.936 161.337 72.6908 139.632 72.5946L74.6436 72.3066C68.7469 72.2805 60.1801 74.5456 55.973 82.8276C53.867 86.9734 52.207 92.4741 52.7176 98.6637C53.2459 105.067 56.043 111.424 61.593 116.974C69.2458 124.627 78.1471 126.8 86.0551 125.888C93.4382 125.035 99.5583 121.581 103.214 118.476C103.43 118.292 103.638 118.1 103.838 117.9L128.261 93.4767L139.539 93.5266C142.64 93.5404 144.183 97.2897 141.991 99.4822L99.2916 142.181C83.9073 157.566 94.8031 183.871 116.56 183.871L132.821 183.871C132.823 183.871 132.825 183.871 132.827 183.871L182.454 183.871ZM158.092 162.938L167.608 153.422C168.81 152.492 171.014 151.328 173.36 151.058C175.358 150.827 177.789 151.146 180.62 153.978C182.838 156.195 183.336 157.985 183.436 159.217C183.531 160.378 183.304 161.653 182.796 162.924C182.692 162.933 182.578 162.938 182.454 162.938L158.092 162.938ZM98.7893 93.3461L89.4062 102.729C88.2042 103.659 86 104.823 83.6548 105.093C81.6567 105.324 79.2257 105.005 76.3943 102.173C74.1802 99.9591 73.6804 98.1723 73.579 96.9425C73.4836 95.787 73.7065 94.5181 74.2087 93.2517C74.3124 93.2431 74.4269 93.2381 74.5508 93.2387L98.7893 93.3461Z" fill="white"/>
<path d="M370.198 105.392C369.788 101.267 368.033 98.0625 364.931 95.7784C361.828 93.4943 357.618 92.3523 352.3 92.3523C348.686 92.3523 345.635 92.8636 343.146 93.8864C340.658 94.875 338.749 96.2557 337.419 98.0284C336.124 99.8011 335.476 101.812 335.476 104.062C335.408 105.938 335.8 107.574 336.652 108.972C337.538 110.369 338.749 111.58 340.283 112.602C341.817 113.591 343.59 114.46 345.601 115.21C347.612 115.926 349.76 116.54 352.044 117.051L361.453 119.301C366.021 120.324 370.215 121.687 374.033 123.392C377.851 125.097 381.158 127.193 383.953 129.682C386.749 132.17 388.913 135.102 390.448 138.477C392.016 141.852 392.817 145.722 392.851 150.085C392.817 156.494 391.181 162.051 387.942 166.756C384.737 171.426 380.101 175.057 374.033 177.648C367.999 180.205 360.72 181.483 352.198 181.483C343.743 181.483 336.379 180.188 330.107 177.597C323.868 175.006 318.993 171.17 315.482 166.091C312.004 160.977 310.181 154.653 310.01 147.119H331.436C331.675 150.631 332.681 153.562 334.453 155.915C336.26 158.233 338.663 159.989 341.663 161.182C344.698 162.341 348.124 162.92 351.942 162.92C355.692 162.92 358.948 162.375 361.709 161.284C364.504 160.193 366.669 158.676 368.203 156.733C369.737 154.79 370.504 152.557 370.504 150.034C370.504 147.682 369.806 145.705 368.408 144.102C367.044 142.5 365.033 141.136 362.374 140.011C359.749 138.886 356.527 137.864 352.709 136.943L341.306 134.08C332.476 131.932 325.504 128.574 320.391 124.006C315.277 119.437 312.737 113.284 312.771 105.545C312.737 99.2045 314.425 93.6648 317.834 88.9261C321.277 84.1875 325.999 80.4886 331.999 77.8295C337.999 75.1705 344.817 73.8409 352.453 73.8409C360.226 73.8409 367.01 75.1705 372.806 77.8295C378.635 80.4886 383.169 84.1875 386.408 88.9261C389.646 93.6648 391.317 99.1534 391.419 105.392H370.198ZM446.234 101.455V117.818H398.933V101.455H446.234ZM409.671 82.6364H431.455V155.864C431.455 157.875 431.762 159.443 432.376 160.568C432.989 161.659 433.842 162.426 434.933 162.869C436.058 163.312 437.353 163.534 438.819 163.534C439.842 163.534 440.864 163.449 441.887 163.278C442.91 163.074 443.694 162.92 444.239 162.818L447.666 179.028C446.575 179.369 445.041 179.761 443.063 180.205C441.086 180.682 438.683 180.972 435.853 181.074C430.603 181.278 426.001 180.58 422.046 178.977C418.126 177.375 415.075 174.886 412.893 171.511C410.711 168.136 409.637 163.875 409.671 158.727V82.6364ZM507.913 146.557V101.455H529.698V180H508.783V165.733H507.965C506.192 170.335 503.243 174.034 499.118 176.83C495.027 179.625 490.033 181.023 484.135 181.023C478.885 181.023 474.266 179.83 470.277 177.443C466.288 175.057 463.169 171.665 460.919 167.267C458.703 162.869 457.578 157.602 457.544 151.466V101.455H479.328V147.58C479.362 152.216 480.607 155.881 483.061 158.574C485.516 161.267 488.805 162.614 492.93 162.614C495.555 162.614 498.01 162.017 500.294 160.824C502.578 159.597 504.419 157.79 505.817 155.403C507.249 153.017 507.948 150.068 507.913 146.557ZM573.185 181.278C567.22 181.278 561.816 179.744 556.975 176.676C552.168 173.574 548.35 169.023 545.521 163.023C542.725 156.989 541.327 149.591 541.327 140.83C541.327 131.83 542.776 124.347 545.674 118.381C548.572 112.381 552.424 107.898 557.231 104.932C562.072 101.932 567.373 100.432 573.134 100.432C577.532 100.432 581.197 101.182 584.129 102.682C587.095 104.148 589.481 105.989 591.288 108.205C593.129 110.386 594.526 112.534 595.481 114.648H596.146V75.2727H617.879V180H596.401V167.42H595.481C594.458 169.602 593.009 171.767 591.134 173.915C589.293 176.028 586.89 177.784 583.924 179.182C580.992 180.58 577.413 181.278 573.185 181.278ZM580.089 163.943C583.6 163.943 586.566 162.989 588.987 161.08C591.441 159.136 593.316 156.426 594.612 152.949C595.941 149.472 596.606 145.398 596.606 140.727C596.606 136.057 595.958 132 594.663 128.557C593.367 125.114 591.492 122.455 589.038 120.58C586.583 118.705 583.6 117.767 580.089 117.767C576.509 117.767 573.492 118.739 571.038 120.682C568.583 122.625 566.725 125.318 565.464 128.761C564.202 132.205 563.572 136.193 563.572 140.727C563.572 145.295 564.202 149.335 565.464 152.847C566.759 156.324 568.617 159.051 571.038 161.028C573.492 162.972 576.509 163.943 580.089 163.943ZM632.909 180V101.455H654.693V180H632.909ZM643.852 91.3295C640.614 91.3295 637.835 90.2557 635.517 88.1079C633.233 85.9261 632.091 83.3182 632.091 80.2841C632.091 77.2841 633.233 74.7102 635.517 72.5625C637.835 70.3807 640.614 69.2898 643.852 69.2898C647.091 69.2898 649.852 70.3807 652.136 72.5625C654.455 74.7102 655.614 77.2841 655.614 80.2841C655.614 83.3182 654.455 85.9261 652.136 88.1079C649.852 90.2557 647.091 91.3295 643.852 91.3295ZM704.752 181.534C696.809 181.534 689.94 179.847 684.144 176.472C678.383 173.062 673.934 168.324 670.798 162.256C667.661 156.153 666.093 149.08 666.093 141.034C666.093 132.92 667.661 125.83 670.798 119.761C673.934 113.659 678.383 108.92 684.144 105.545C689.94 102.136 696.809 100.432 704.752 100.432C712.695 100.432 719.548 102.136 725.309 105.545C731.104 108.92 735.57 113.659 738.707 119.761C741.843 125.83 743.411 132.92 743.411 141.034C743.411 149.08 741.843 156.153 738.707 162.256C735.57 168.324 731.104 173.062 725.309 176.472C719.548 179.847 712.695 181.534 704.752 181.534ZM704.854 164.659C708.468 164.659 711.485 163.636 713.906 161.591C716.326 159.511 718.15 156.682 719.377 153.102C720.638 149.523 721.269 145.449 721.269 140.881C721.269 136.312 720.638 132.239 719.377 128.659C718.15 125.08 716.326 122.25 713.906 120.17C711.485 118.091 708.468 117.051 704.854 117.051C701.207 117.051 698.138 118.091 695.65 120.17C693.195 122.25 691.337 125.08 690.076 128.659C688.849 132.239 688.235 136.312 688.235 140.881C688.235 145.449 688.849 149.523 690.076 153.102C691.337 156.682 693.195 159.511 695.65 161.591C698.138 163.636 701.207 164.659 704.854 164.659ZM790.185 181.534C782.139 181.534 775.219 179.83 769.423 176.42C763.662 172.977 759.23 168.205 756.128 162.102C753.06 156 751.526 148.977 751.526 141.034C751.526 132.989 753.077 125.932 756.179 119.864C759.315 113.761 763.764 109.006 769.526 105.597C775.287 102.153 782.139 100.432 790.082 100.432C796.935 100.432 802.935 101.676 808.082 104.165C813.23 106.653 817.304 110.148 820.304 114.648C823.304 119.148 824.957 124.432 825.264 130.5H804.707C804.128 126.58 802.594 123.426 800.105 121.04C797.651 118.619 794.429 117.409 790.44 117.409C787.065 117.409 784.116 118.33 781.594 120.17C779.105 121.977 777.162 124.619 775.764 128.097C774.366 131.574 773.668 135.784 773.668 140.727C773.668 145.739 774.349 150 775.713 153.511C777.111 157.023 779.071 159.699 781.594 161.54C784.116 163.381 787.065 164.301 790.44 164.301C792.929 164.301 795.162 163.79 797.139 162.767C799.151 161.744 800.804 160.261 802.099 158.318C803.429 156.341 804.298 153.972 804.707 151.21H825.264C824.923 157.21 823.287 162.494 820.355 167.062C817.457 171.597 813.452 175.142 808.338 177.699C803.224 180.256 797.173 181.534 790.185 181.534ZM836.332 180V101.455H857.451V115.159H858.269C859.701 110.284 862.104 106.602 865.479 104.114C868.854 101.591 872.741 100.33 877.138 100.33C878.229 100.33 879.405 100.398 880.667 100.534C881.928 100.67 883.036 100.858 883.991 101.097V120.426C882.968 120.119 881.553 119.847 879.746 119.608C877.94 119.369 876.286 119.25 874.786 119.25C871.582 119.25 868.718 119.949 866.195 121.347C863.707 122.71 861.729 124.619 860.263 127.074C858.832 129.528 858.116 132.358 858.116 135.562V180H836.332ZM912.521 181.483C907.51 181.483 903.044 180.614 899.123 178.875C895.203 177.102 892.101 174.494 889.817 171.051C887.567 167.574 886.442 163.244 886.442 158.062C886.442 153.699 887.243 150.034 888.845 147.068C890.447 144.102 892.629 141.716 895.391 139.909C898.152 138.102 901.288 136.739 904.8 135.818C908.345 134.898 912.061 134.25 915.947 133.875C920.516 133.398 924.197 132.955 926.993 132.545C929.788 132.102 931.817 131.455 933.078 130.602C934.339 129.75 934.97 128.489 934.97 126.818V126.511C934.97 123.273 933.947 120.767 931.902 118.994C929.891 117.222 927.027 116.335 923.311 116.335C919.391 116.335 916.271 117.205 913.953 118.943C911.635 120.648 910.101 122.795 909.351 125.386L889.203 123.75C890.226 118.977 892.237 114.852 895.237 111.375C898.237 107.864 902.106 105.17 906.845 103.295C911.618 101.386 917.141 100.432 923.413 100.432C927.777 100.432 931.953 100.943 935.942 101.966C939.964 102.989 943.527 104.574 946.629 106.722C949.766 108.869 952.237 111.631 954.044 115.006C955.851 118.347 956.754 122.352 956.754 127.023V180H936.095V169.108H935.481C934.22 171.562 932.533 173.727 930.419 175.602C928.305 177.443 925.766 178.892 922.8 179.949C919.834 180.972 916.408 181.483 912.521 181.483ZM918.76 166.449C921.964 166.449 924.794 165.818 927.248 164.557C929.703 163.261 931.629 161.523 933.027 159.341C934.425 157.159 935.123 154.687 935.123 151.926V143.591C934.442 144.034 933.504 144.443 932.311 144.818C931.152 145.159 929.839 145.483 928.373 145.79C926.908 146.062 925.442 146.318 923.976 146.557C922.51 146.761 921.18 146.949 919.987 147.119C917.43 147.494 915.197 148.091 913.288 148.909C911.379 149.727 909.896 150.835 908.839 152.233C907.783 153.597 907.254 155.301 907.254 157.347C907.254 160.312 908.328 162.58 910.476 164.148C912.658 165.682 915.419 166.449 918.76 166.449ZM1013.01 101.455V117.818H964.536V101.455H1013.01ZM975.633 180V95.7784C975.633 90.0852 976.741 85.3636 978.957 81.6136C981.207 77.8636 984.275 75.0511 988.161 73.1761C992.047 71.3011 996.462 70.3636 1001.41 70.3636C1004.75 70.3636 1007.8 70.6193 1010.56 71.1307C1013.35 71.642 1015.43 72.1023 1016.8 72.5114L1012.91 88.875C1012.06 88.6023 1011 88.3466 1009.74 88.1079C1008.51 87.8693 1007.25 87.75 1005.96 87.75C1002.75 87.75 1000.52 88.5 999.258 90C997.996 91.4659 997.366 93.5284 997.366 96.1875V180H975.633ZM1065.22 101.455V117.818H1017.92V101.455H1065.22ZM1028.66 82.6364H1050.44V155.864C1050.44 157.875 1050.75 159.443 1051.36 160.568C1051.98 161.659 1052.83 162.426 1053.92 162.869C1055.04 163.312 1056.34 163.534 1057.81 163.534C1058.83 163.534 1059.85 163.449 1060.87 163.278C1061.9 163.074 1062.68 162.92 1063.23 162.818L1066.65 179.028C1065.56 179.369 1064.03 179.761 1062.05 180.205C1060.07 180.682 1057.67 180.972 1054.84 181.074C1049.59 181.278 1044.99 180.58 1041.03 178.977C1037.11 177.375 1034.06 174.886 1031.88 171.511C1029.7 168.136 1028.62 163.875 1028.66 158.727V82.6364Z" fill="#001B44"/>
</svg>
