<svg width="767" height="512" viewBox="0 0 767 512" fill="none" xmlns="http://www.w3.org/2000/svg">
<path fill-rule="evenodd" clip-rule="evenodd" d="M273.5 128C273.5 188.751 322.749 238 383.5 238C444.251 238 493.5 188.751 493.5 128C493.5 67.2487 444.251 18 383.5 18C322.749 18 273.5 67.2487 273.5 128ZM383.5 0C312.808 0 255.5 57.3076 255.5 128C255.5 198.692 312.808 256 383.5 256C454.192 256 511.5 198.692 511.5 128C511.5 57.3076 454.192 0 383.5 0Z" fill="white"/>
<path fill-rule="evenodd" clip-rule="evenodd" d="M437.954 183.871C443.819 183.871 452.322 181.596 456.517 173.371C458.632 169.226 460.303 163.721 459.8 157.522C459.279 151.109 456.483 144.738 450.922 139.176C443.269 131.524 434.368 129.351 426.46 130.263C419.077 131.116 412.956 134.57 409.301 137.675C409.085 137.859 408.877 138.051 408.676 138.251L383.989 162.938L372.06 162.938C368.952 162.938 367.395 159.181 369.593 156.983L412.292 114.284C427.64 98.936 416.837 72.6908 395.132 72.5946L330.144 72.3066C324.247 72.2805 315.68 74.5456 311.473 82.8276C309.367 86.9734 307.707 92.4741 308.218 98.6637C308.746 105.067 311.543 111.424 317.093 116.974C324.746 124.627 333.647 126.8 341.555 125.888C348.938 125.035 355.059 121.581 358.714 118.476C358.93 118.292 359.138 118.1 359.339 117.9L383.762 93.4767L395.04 93.5266C398.14 93.5404 399.684 97.2897 397.491 99.4822L354.792 142.181C339.408 157.566 350.303 183.871 372.06 183.871L388.322 183.871C388.324 183.871 388.326 183.871 388.328 183.871L437.954 183.871ZM413.592 162.938L423.109 153.422C424.311 152.492 426.515 151.328 428.86 151.058C430.858 150.827 433.289 151.146 436.12 153.978C438.338 156.195 438.836 157.985 438.936 159.217C439.031 160.378 438.804 161.653 438.296 162.924C438.193 162.933 438.078 162.938 437.954 162.938L413.592 162.938ZM354.29 93.3461L344.906 102.729C343.704 103.659 341.5 104.823 339.155 105.093C337.157 105.324 334.726 105.005 331.895 102.173C329.68 99.9591 329.181 98.1723 329.079 96.9425C328.984 95.787 329.207 94.5181 329.709 93.2517C329.813 93.2431 329.927 93.2381 330.051 93.2387L354.29 93.3461Z" fill="white"/>
<path d="M66.1976 361.392C65.7885 357.267 64.0328 354.062 60.9305 351.778C57.8283 349.494 53.618 348.352 48.2999 348.352C44.6862 348.352 41.6351 348.864 39.1464 349.886C36.6578 350.875 34.7487 352.256 33.4192 354.028C32.1237 355.801 31.476 357.812 31.476 360.062C31.4078 361.938 31.7999 363.574 32.6521 364.972C33.5385 366.369 34.7487 367.58 36.2828 368.602C37.8169 369.591 39.5896 370.46 41.601 371.21C43.6124 371.926 45.7601 372.54 48.0442 373.051L57.4533 375.301C62.0214 376.324 66.2146 377.687 70.0328 379.392C73.851 381.097 77.1578 383.193 79.9533 385.682C82.7487 388.17 84.9135 391.102 86.4476 394.477C88.0158 397.852 88.8169 401.722 88.851 406.085C88.8169 412.494 87.1805 418.051 83.9419 422.756C80.7374 427.426 76.101 431.057 70.0328 433.648C63.9987 436.205 56.7203 437.483 48.1976 437.483C39.743 437.483 32.3794 436.188 26.1067 433.597C19.868 431.006 14.993 427.17 11.4817 422.091C8.0044 416.977 6.18053 410.653 6.01008 403.119H27.4362C27.6749 406.631 28.6805 409.562 30.4533 411.915C32.2601 414.233 34.6635 415.989 37.6635 417.182C40.6976 418.341 44.1237 418.92 47.9419 418.92C51.6919 418.92 54.9476 418.375 57.7089 417.284C60.5044 416.193 62.6692 414.676 64.2033 412.733C65.7374 410.79 66.5044 408.557 66.5044 406.034C66.5044 403.682 65.8055 401.705 64.4078 400.102C63.0442 398.5 61.0328 397.136 58.3737 396.011C55.7487 394.886 52.5271 393.864 48.7089 392.943L37.3055 390.08C28.476 387.932 21.5044 384.574 16.3908 380.006C11.2771 375.437 8.73735 369.284 8.77144 361.545C8.73735 355.205 10.4249 349.665 13.8339 344.926C17.2771 340.188 21.9987 336.489 27.9987 333.83C33.9987 331.17 40.8169 329.841 48.4533 329.841C56.226 329.841 63.0101 331.17 68.8055 333.83C74.6351 336.489 79.1692 340.188 82.4078 344.926C85.6464 349.665 87.3169 355.153 87.4192 361.392H66.1976ZM142.234 357.455V373.818H94.9326V357.455H142.234ZM105.671 338.636H127.455V411.864C127.455 413.875 127.762 415.443 128.376 416.568C128.989 417.659 129.842 418.426 130.933 418.869C132.058 419.312 133.353 419.534 134.819 419.534C135.842 419.534 136.864 419.449 137.887 419.278C138.91 419.074 139.694 418.92 140.239 418.818L143.666 435.028C142.575 435.369 141.041 435.761 139.063 436.205C137.086 436.682 134.683 436.972 131.853 437.074C126.603 437.278 122.001 436.58 118.046 434.977C114.126 433.375 111.075 430.886 108.893 427.511C106.711 424.136 105.637 419.875 105.671 414.727V338.636ZM203.913 402.557V357.455H225.698V436H204.783V421.733H203.965C202.192 426.335 199.243 430.034 195.118 432.83C191.027 435.625 186.033 437.023 180.135 437.023C174.885 437.023 170.266 435.83 166.277 433.443C162.288 431.057 159.169 427.665 156.919 423.267C154.703 418.869 153.578 413.602 153.544 407.466V357.455H175.328V403.58C175.362 408.216 176.607 411.881 179.061 414.574C181.516 417.267 184.805 418.614 188.93 418.614C191.555 418.614 194.01 418.017 196.294 416.824C198.578 415.597 200.419 413.79 201.817 411.403C203.249 409.017 203.948 406.068 203.913 402.557ZM269.185 437.278C263.22 437.278 257.816 435.744 252.975 432.676C248.168 429.574 244.35 425.023 241.521 419.023C238.725 412.989 237.327 405.591 237.327 396.83C237.327 387.83 238.776 380.347 241.674 374.381C244.572 368.381 248.424 363.898 253.231 360.932C258.072 357.932 263.373 356.432 269.134 356.432C273.532 356.432 277.197 357.182 280.129 358.682C283.095 360.148 285.481 361.989 287.288 364.205C289.129 366.386 290.526 368.534 291.481 370.648H292.146V331.273H313.879V436H292.401V423.42H291.481C290.458 425.602 289.009 427.767 287.134 429.915C285.293 432.028 282.89 433.784 279.924 435.182C276.992 436.58 273.413 437.278 269.185 437.278ZM276.089 419.943C279.6 419.943 282.566 418.989 284.987 417.08C287.441 415.136 289.316 412.426 290.612 408.949C291.941 405.472 292.606 401.398 292.606 396.727C292.606 392.057 291.958 388 290.663 384.557C289.367 381.114 287.492 378.455 285.038 376.58C282.583 374.705 279.6 373.767 276.089 373.767C272.509 373.767 269.492 374.739 267.038 376.682C264.583 378.625 262.725 381.318 261.464 384.761C260.202 388.205 259.572 392.193 259.572 396.727C259.572 401.295 260.202 405.335 261.464 408.847C262.759 412.324 264.617 415.051 267.038 417.028C269.492 418.972 272.509 419.943 276.089 419.943ZM328.909 436V357.455H350.693V436H328.909ZM339.852 347.33C336.614 347.33 333.835 346.256 331.517 344.108C329.233 341.926 328.091 339.318 328.091 336.284C328.091 333.284 329.233 330.71 331.517 328.562C333.835 326.381 336.614 325.29 339.852 325.29C343.091 325.29 345.852 326.381 348.136 328.562C350.455 330.71 351.614 333.284 351.614 336.284C351.614 339.318 350.455 341.926 348.136 344.108C345.852 346.256 343.091 347.33 339.852 347.33ZM400.752 437.534C392.809 437.534 385.94 435.847 380.144 432.472C374.383 429.062 369.934 424.324 366.798 418.256C363.661 412.153 362.093 405.08 362.093 397.034C362.093 388.92 363.661 381.83 366.798 375.761C369.934 369.659 374.383 364.92 380.144 361.545C385.94 358.136 392.809 356.432 400.752 356.432C408.695 356.432 415.548 358.136 421.309 361.545C427.104 364.92 431.57 369.659 434.707 375.761C437.843 381.83 439.411 388.92 439.411 397.034C439.411 405.08 437.843 412.153 434.707 418.256C431.57 424.324 427.104 429.062 421.309 432.472C415.548 435.847 408.695 437.534 400.752 437.534ZM400.854 420.659C404.468 420.659 407.485 419.636 409.906 417.591C412.326 415.511 414.15 412.682 415.377 409.102C416.638 405.523 417.269 401.449 417.269 396.881C417.269 392.312 416.638 388.239 415.377 384.659C414.15 381.08 412.326 378.25 409.906 376.17C407.485 374.091 404.468 373.051 400.854 373.051C397.207 373.051 394.138 374.091 391.65 376.17C389.195 378.25 387.337 381.08 386.076 384.659C384.849 388.239 384.235 392.312 384.235 396.881C384.235 401.449 384.849 405.523 386.076 409.102C387.337 412.682 389.195 415.511 391.65 417.591C394.138 419.636 397.207 420.659 400.854 420.659ZM486.185 437.534C478.139 437.534 471.219 435.83 465.423 432.42C459.662 428.977 455.23 424.205 452.128 418.102C449.06 412 447.526 404.977 447.526 397.034C447.526 388.989 449.077 381.932 452.179 375.864C455.315 369.761 459.764 365.006 465.526 361.597C471.287 358.153 478.139 356.432 486.082 356.432C492.935 356.432 498.935 357.676 504.082 360.165C509.23 362.653 513.304 366.148 516.304 370.648C519.304 375.148 520.957 380.432 521.264 386.5H500.707C500.128 382.58 498.594 379.426 496.105 377.04C493.651 374.619 490.429 373.409 486.44 373.409C483.065 373.409 480.116 374.33 477.594 376.17C475.105 377.977 473.162 380.619 471.764 384.097C470.366 387.574 469.668 391.784 469.668 396.727C469.668 401.739 470.349 406 471.713 409.511C473.111 413.023 475.071 415.699 477.594 417.54C480.116 419.381 483.065 420.301 486.44 420.301C488.929 420.301 491.162 419.79 493.139 418.767C495.151 417.744 496.804 416.261 498.099 414.318C499.429 412.341 500.298 409.972 500.707 407.21H521.264C520.923 413.21 519.287 418.494 516.355 423.062C513.457 427.597 509.452 431.142 504.338 433.699C499.224 436.256 493.173 437.534 486.185 437.534ZM532.332 436V357.455H553.451V371.159H554.269C555.701 366.284 558.104 362.602 561.479 360.114C564.854 357.591 568.741 356.33 573.138 356.33C574.229 356.33 575.405 356.398 576.667 356.534C577.928 356.67 579.036 356.858 579.991 357.097V376.426C578.968 376.119 577.553 375.847 575.746 375.608C573.94 375.369 572.286 375.25 570.786 375.25C567.582 375.25 564.718 375.949 562.195 377.347C559.707 378.71 557.729 380.619 556.263 383.074C554.832 385.528 554.116 388.358 554.116 391.562V436H532.332ZM608.521 437.483C603.51 437.483 599.044 436.614 595.123 434.875C591.203 433.102 588.101 430.494 585.817 427.051C583.567 423.574 582.442 419.244 582.442 414.062C582.442 409.699 583.243 406.034 584.845 403.068C586.447 400.102 588.629 397.716 591.391 395.909C594.152 394.102 597.288 392.739 600.8 391.818C604.345 390.898 608.061 390.25 611.947 389.875C616.516 389.398 620.197 388.955 622.993 388.545C625.788 388.102 627.817 387.455 629.078 386.602C630.339 385.75 630.97 384.489 630.97 382.818V382.511C630.97 379.273 629.947 376.767 627.902 374.994C625.891 373.222 623.027 372.335 619.311 372.335C615.391 372.335 612.271 373.205 609.953 374.943C607.635 376.648 606.101 378.795 605.351 381.386L585.203 379.75C586.226 374.977 588.237 370.852 591.237 367.375C594.237 363.864 598.106 361.17 602.845 359.295C607.618 357.386 613.141 356.432 619.413 356.432C623.777 356.432 627.953 356.943 631.942 357.966C635.964 358.989 639.527 360.574 642.629 362.722C645.766 364.869 648.237 367.631 650.044 371.006C651.851 374.347 652.754 378.352 652.754 383.023V436H632.095V425.108H631.481C630.22 427.562 628.533 429.727 626.419 431.602C624.305 433.443 621.766 434.892 618.8 435.949C615.834 436.972 612.408 437.483 608.521 437.483ZM614.76 422.449C617.964 422.449 620.794 421.818 623.248 420.557C625.703 419.261 627.629 417.523 629.027 415.341C630.425 413.159 631.123 410.687 631.123 407.926V399.591C630.442 400.034 629.504 400.443 628.311 400.818C627.152 401.159 625.839 401.483 624.373 401.79C622.908 402.062 621.442 402.318 619.976 402.557C618.51 402.761 617.18 402.949 615.987 403.119C613.43 403.494 611.197 404.091 609.288 404.909C607.379 405.727 605.896 406.835 604.839 408.233C603.783 409.597 603.254 411.301 603.254 413.347C603.254 416.312 604.328 418.58 606.476 420.148C608.658 421.682 611.419 422.449 614.76 422.449ZM709.013 357.455V373.818H660.536V357.455H709.013ZM671.633 436V351.778C671.633 346.085 672.741 341.364 674.957 337.614C677.207 333.864 680.275 331.051 684.161 329.176C688.047 327.301 692.462 326.364 697.405 326.364C700.746 326.364 703.797 326.619 706.559 327.131C709.354 327.642 711.434 328.102 712.797 328.511L708.911 344.875C708.059 344.602 707.002 344.347 705.741 344.108C704.513 343.869 703.252 343.75 701.957 343.75C698.752 343.75 696.519 344.5 695.258 346C693.996 347.466 693.366 349.528 693.366 352.188V436H671.633ZM761.22 357.455V373.818H713.919V357.455H761.22ZM724.658 338.636H746.442V411.864C746.442 413.875 746.748 415.443 747.362 416.568C747.976 417.659 748.828 418.426 749.919 418.869C751.044 419.312 752.339 419.534 753.805 419.534C754.828 419.534 755.851 419.449 756.873 419.278C757.896 419.074 758.68 418.92 759.226 418.818L762.652 435.028C761.561 435.369 760.027 435.761 758.05 436.205C756.072 436.682 753.669 436.972 750.839 437.074C745.589 437.278 740.987 436.58 737.033 434.977C733.112 433.375 730.061 430.886 727.879 427.511C725.697 424.136 724.623 419.875 724.658 414.727V338.636Z" fill="white"/>
</svg>
